<svg id="eQNoIv7iwcU1" xmlns="http://www.w3.org/2000/svg" xmlns:xlink="http://www.w3.org/1999/xlink" viewBox="0 0 300 300" shape-rendering="geometricPrecision" text-rendering="geometricPrecision"><path d="M24.24878,150C24.24878,79.46997,80.54952,22.29409,150,22.29409s125.75122,57.17588,125.75122,127.70591-56.30074,127.70591-125.75122,127.70591-125.75122-57.17588-125.75122-127.70591Z" opacity="0.96" fill="rgba(255,255,255,0)" stroke="#000" stroke-width="10"/><line x1="0" y1="-63.852955" x2="0" y2="63.852955" transform="matrix(-.707107-.707107-.476916 0.476916 180.096695 180.452492)" stroke="#020202" stroke-width="10" stroke-linecap="round" stroke-linejoin="round"/><line x1="0" y1="-63.852955" x2="0" y2="63.852955" transform="matrix(.707107-.707107-.476916-.476916 119.547508 180.452492)" stroke="#020202" stroke-width="10" stroke-linecap="round" stroke-linejoin="round"/><line x1="0" y1="-63.852955" x2="0" y2="63.852955" transform="matrix(0 1-.95383 0 150 213.797063)" stroke="#020202" stroke-width="10" stroke-linecap="round" stroke-linejoin="round"/><line x1="0" y1="-63.852955" x2="0" y2="63.852955" transform="matrix(1 0 0 1.418299 150 115.856672)" stroke="#020202" stroke-width="10" stroke-linecap="round" stroke-linejoin="round"/><ellipse rx="30.808191" ry="30.808191" transform="translate(210.904886 207.797071)" fill="rgba(210,219,237,0)" stroke-width="0"/></svg>
